# xmcd CD database file
#
# Track frame offsets:
#	150
#	17447
#	36967
#	56472
#	73705
#	94352
#	115272
#	131952
#	150652
#	170952
#	188017
#	209207
#	233462
#
# Disc length: 3370 seconds
#
# Revision: 1
# Processed by: cddbd v1.5.1PL0 Copyright (c) Steve Scherf et al.
# Submitted via: jetAudio 5
#
DISCID=ba0d280d
DTITLE=donell jones - life goes on
DYEAR=1900
DGENRE=
TTITLE0=still
TTITLE1=put me down
TTITLE2=you know that i love
TTITLE3=where you are
TTITLE4=do u wanna
TTITLE5=life goes on
TTITLE6=freakin u
TTITLE7=gotta get her
TTITLE8=guilt by suspicion
TTITLE9=dont leave
TTITLE10=come back
TTITLE11=i hope its you
TTITLE12=?
EXTD=
EXTT0=
EXTT1=
EXTT2=
EXTT3=
EXTT4=
EXTT5=
EXTT6=
EXTT7=
EXTT8=
EXTT9=
EXTT10=
EXTT11=
EXTT12=
PLAYORDER=
